<?xml version="1.0" encoding="utf-8"?>
<!-- Generator: Adobe Illustrator 26.1.0, SVG Export Plug-In . SVG Version: 6.00 Build 0)  -->
<svg version="1.1" id="Layer_1" xmlns="http://www.w3.org/2000/svg" xmlns:xlink="http://www.w3.org/1999/xlink" x="0px" y="0px"
	 viewBox="0 0 1366 768" style="enable-background:new 0 0 1366 768;" xml:space="preserve">
<style type="text/css">
	.st0{fill:#FFFFFF;}
</style>
<g id="Layer_1_00000175314405612546319850000003567592376207832467_">
</g>
<g id="Layer_1_copy">
	<g>
		<path d="M440.2,36.6l-17.5,29.1l-16,26.6V36.6H141V732h521.1l15-37.8l5.3-13.3l52.8-132.5l6.5-16.2h19l2.9,141.1l1.2,58.7H1226
			V36.6H440.2z M1194.1,524.2v119.9h-145.9h-50.9h-144h-1.9l-3-145.9l-1.1-54H729l-21.5,54l-52.8,132.6l-5.3,13.3H493.3h-1l0.4-1
			l-85.1-144.9l-31.7-54h-1.1v30.8v169H228.9V68.6h145.9v212.3l39.8-66.4l87.5-145.9h170.1l-87.5,145.9l-50.4,83.9l-37.9,63.2
			l48.6,82.7l16,27.3l10.9-27.3l58.1-145.9l33.5-83.9l58.1-145.9h118h39h106.9l3,145.9l1.7,83.9l3,145.9l1.1,54l0.5,26h53.3V68.6
			H1194L1194.1,524.2L1194.1,524.2z"/>
		<polygon points="820.5,214.5 787.1,298.4 844.3,298.4 842.6,214.5 		"/>
		<path class="st0" d="M1048.2,524.2h-53.3l-0.5-26l-1.1-54l-3-145.9l-1.7-83.9l-3-145.9H878.7h-39h-118l-58.1,145.9l-33.5,83.9
			L572,444.2l-10.9,27.3l-16-27.3l-48.6-82.7l37.9-63.2l50.4-83.9l87.5-145.9H502.1l-87.5,145.9l-39.8,66.4V68.6
			c0,0-142.3,0-145.8,0c-3,7.4,0,22.2,0,30c0,25.9,0,51.8,0,77.6c0,75.1,0,150.3,0,225.4c0,80.4,1.6,161.5-0.2,241.7
			c13.4,2,146.1,0,146.1,0.7v-169v-30.8h1.1l31.7,54l85.1,144.9l-0.4,1h1h156.1l5.3-13.3l52.8-132.6l21.5-54h118.3l1.1,54l3,145.9
			h1.9h144h50.9H1194V524.2V68.6h-145.9L1048.2,524.2L1048.2,524.2z M787.1,298.4l33.5-83.9h22.1l1.7,83.9H787.1z"/>
	</g>
</g>
<g id="Layer_2_00000043437457161233616020000000696151988967170449_">
</g>
</svg>
