<?xml version="1.0" encoding="utf-8"?>
<!-- Generator: Adobe Illustrator 26.1.0, SVG Export Plug-In . SVG Version: 6.00 Build 0)  -->
<svg version="1.1" id="Layer_1" xmlns="http://www.w3.org/2000/svg" xmlns:xlink="http://www.w3.org/1999/xlink" x="0px" y="0px"
	 viewBox="0 0 1366 768" style="enable-background:new 0 0 1366 768;" xml:space="preserve">
<g>
	<path fill="#fff" d="M641.9,61.7c-7,9.6-13.4,18.3-19.9,27.1c-28.4,38.6-58.6,75.7-90.9,111.1c-3.2,3.5-3.3,5.6-0.5,9.3
		c24.9,33.4,47.7,68.3,66.2,105.8c7.2,14.6,13.4,29.7,20.1,44.6c0.4,1,0.6,2,1.2,3.7c-1.9,0.2-3.5,0.4-5.1,0.4
		c-30.5,0-60.9-0.1-91.4,0.1c-3.9,0-5.8-1.1-7-4.9c-14.7-42.9-35.3-82.9-59.5-121.1c-0.8-1.2-1.7-2.5-3.3-4.8
		c-0.6,2.7-1.1,4.1-1.3,5.5c-5.9,41.8-17.6,82-34.1,120.8c-1.1,2.6-2.3,4.4-5.6,4.4c-23.6-0.1-47.3-0.1-70.9-0.1
		c-1,0-2.1-0.3-3.7-0.5c0.6-1.9,1-3.5,1.7-5c33.2-76.8,43.2-157.2,37.5-240c-1.2-17.4-3.1-34.7-4.9-52c-0.4-4.1,0.4-5.5,4.7-5.4
		c22.8,0.2,45.7,0.2,68.6,0c4.3,0,5.5,1.5,5.9,5.5c4.6,37.9,7.1,75.8,6,114c0,1.2,0.1,2.4,0.2,4.9c2.4-2.8,4.1-4.6,5.7-6.6
		c28.8-36.3,55.4-74.3,80.1-113.4c2-3.1,4.1-4.4,7.8-4.4c57.7,0.1,115.3,0.1,173,0c3.7,0,5.8,1,7.6,4.5
		c28.9,55.7,54.4,112.7,70,173.8c0.3,1.1,0.8,2.2,1.7,4.7c4-7.5,7.4-13.8,10.7-20.2C838.4,173,857.8,120,872.7,65.3
		c0.8-2.8,1.6-4.6,5.2-4.5c25.8,0.1,51.6,0.1,77.4,0.1c1.2,0,2.4,0.3,4.2,0.5c-1.3,4.2-2.4,8-3.6,11.9
		c-16,52.1-36.3,102.5-62.2,150.5c-25.4,47.1-56,90.6-90.2,131.6c-5.2,6.2-10.3,8.9-18.4,8.6c-15-0.7-30.1-0.3-45.2-0.1
		c-3.4,0-5-0.7-5-4.6c0.7-65.9-15.4-128.3-40-188.9c-14.5-35.9-31.7-70.5-50.2-104.5C644,64.6,643.2,63.5,641.9,61.7z"/>
	<path fill="#fff" d="M894.4,678.7c-2,0.1-3.3,0.2-4.5,0.2c-25.7,0-51.3,0-77,0.1c-2.8,0-4.5-0.7-5.9-3.2c-25.9-45.4-49.8-91.7-67.3-141.1
		c-3.6-10.2-6.8-20.7-10.1-31c-0.6-1.7-1.1-3.5-2.3-5.3c-30.6,56.8-50.6,117.4-64.5,180.7c-1.8,0-3.5,0-5.2,0
		c-57.8,0-115.7,0-173.5,0.1c-3.4,0-5.6-0.9-8-3.5c-35.1-37.5-69.1-75.8-100.4-116.5c-0.8-1-1.8-1.9-3.2-2.6
		c-0.6,41.1,4.1,81.5,11.3,122.2c-1.8,0.1-3.1,0.3-4.4,0.3c-23.3,0-46.6,0-70,0.1c-3,0-4.7-0.3-5.4-4
		c-8.6-49.8-13.3-99.8-10.1-150.4c3.2-50,14.8-97.9,34.6-143.9c0.6-1.4,2.6-3,3.9-3c24.7-0.2,49.4-0.1,74.1,0c0.4,0,0.8,0.3,1.8,0.7
		c-17.7,40.8-29.4,83.1-33.9,128.9c2.3-2,3.6-3,4.7-4.3c39.4-44.4,82.5-84.9,128.2-122.7c1.8-1.5,4.3-2.7,6.5-2.7
		c31.6-0.2,63.1-0.1,94.7-0.1c0.8,0,1.5,0.1,3.5,0.3c-1.8,1.6-3,2.7-4.1,3.7c-26.5,22.8-53.4,45.2-79.4,68.6
		c-28.7,25.8-55.1,53.9-80.6,82.9c-2.6,2.9-1.7,4.6,0.3,7c36.9,45.4,77.1,87.8,118.7,128.9c2.9,2.9,5.9,5.8,9.6,9.3
		c0.7-2.1,1.2-3.3,1.5-4.6c12.2-49,28.2-96.6,49.8-142.3c25.4-53.7,58-102.6,96.2-148.1c3.6-4.3,7.1-5.9,12.6-5.8
		c16.5,0.4,33,0.2,49.4,0.1c3.2,0,4.3,0.9,4.3,4.2c-0.1,65,17.9,125.7,44,184.5c16.6,37.4,36.4,73.1,57.5,108.2
		C892.8,675.6,893.4,676.8,894.4,678.7z"/>
	<path fill="#fff" d="M945.2,363.1c0.5-1.5,0.7-2.7,1.2-3.8c33.4-76.8,43.6-157.4,38-240.4c-1.2-17.7-3.2-35.3-5-52.9c-0.4-3.9,0.3-5.2,4.4-5.2
		c23.2,0.1,46.3,0.1,69.5,0c3.1,0,4.7,0.7,5.1,4.3c7.3,58.5,9.4,117.1,0.8,175.7c-6.1,41.3-17.7,81-34.3,119.3
		c-0.7,1.6-3,3.5-4.6,3.5c-24.4,0.2-48.8,0.1-73.2,0.1C946.7,363.6,946.2,363.4,945.2,363.1z"/>
	<path fill="#fff" d="M992.7,678.6c-1.7,0.1-2.9,0.3-4.2,0.3c-23.5,0-46.9,0-70.4,0c-2.4,0-4.3,0.1-4.9-3.3c-9.7-56.1-14.6-112.5-8.7-169.4
		c4.5-43.3,15.6-84.9,32.8-124.9c0.7-1.6,2.9-3.6,4.4-3.6c24.6-0.2,49.1-0.1,73.7-0.1c0.4,0,0.9,0.2,1.9,0.5
		c-0.5,1.5-0.9,2.9-1.5,4.2c-31.2,72.4-39.9,148.1-32.4,225.9c2.1,21.8,5.6,43.4,8.5,65.1C992.1,675,992.4,676.5,992.7,678.6z"/>
</g>
</svg>
